<?xml version="1.0" encoding="UTF-8"?>
<svg id="Layer_2" data-name="Layer 2" xmlns="http://www.w3.org/2000/svg" viewBox="0 0 620.5065 107.9478">
  <defs>
    <style>
      .cls-1 {
        fill: #ee8418;
      }

      .cls-2 {
        fill: #333;
      }
    </style>
  </defs>
  <g id="Layer_3" data-name="Layer 3">
    <g>
      <g>
        <path class="cls-2" d="M162.0756,27.2967c11.1738,0,17.1592,3.8911,18.9551,5.2876,1.7959,1.4966,4.0898,4.2896.499,10.6743-2.2949,4.29-4.7891,5.7866-4.7891,5.7866,0,0-4.3896-4.29-12.6699-4.29-9.876,0-13.3682,7.7812-13.3682,17.3584,0,9.4775,4.3896,17.3589,12.9697,17.3589,5.1875,0,8.4795-1.9951,9.9756-2.9932,1.9951-1.2969,4.5889-2.394,6.4844,1.1973l3.791,7.083c1.1973,2.1948,2.1953,3.8911-.2988,5.9858-3.3916,2.9932-10.5752,6.3848-20.751,6.3848-21.4482,0-32.6221-15.064-32.3223-34.9165.3984-19.7529,10.375-34.917,31.5244-34.917Z"/>
        <path class="cls-2" d="M215.0512,40.266c18.3564,0,27.834,12.3706,27.6348,28.4321-.2002,16.0615-9.2783,28.5317-27.4346,28.5317-18.2568,0-27.4346-12.4702-27.335-28.7314.0996-15.8618,9.0781-28.2324,27.1348-28.2324ZM222.8324,68.4984c0-6.2847-1.4961-11.7715-7.5811-11.7715-6.585,0-7.7822,5.4868-7.7822,11.7715,0,6.4849,1.3975,12.271,7.582,12.271,6.585,0,7.7812-5.7861,7.7812-12.271Z"/>
        <path class="cls-2" d="M248.4721,83.4628c.499-15.6626.5986-26.7358.499-34.1187,0-4.2896-2.6943-9.0781,8.9785-9.0781,6.9834,0,9.876,2.9927,11.1729,6.4844.5986,1.4966.8984,3.1924.8984,5.188h.6982c.3984-3.8911,5.2871-11.6724,15.8623-11.6724,15.6621,0,16.2607,15.563,16.1611,23.0449-.1992,8.1807-1.4961,16.3608-.6982,26.2373.3984,4.3896-.0996,7.582-9.2783,7.582-8.4795,0-12.1709-3.791-12.1709-9.5771,0-8.3799,1.1973-16.0615,1.1973-23.6436,0-3.9902-1.7959-6.8838-5.9854-6.8838-3.292,0-5.1875,2.6938-6.1855,3.9907-.1992,6.8838-.3994,15.7622-.0996,21.6484.0996,1.9951.1992,3.8906.3994,5.1875.3984,4.4893.1992,8.2803-6.6846,8.2803h-7.7812c-5.0879,0-6.3848-3.0928-6.8838-6.3848-.1992-1.7959-.0996-4.0903-.0996-6.2852Z"/>
        <path class="cls-2" d="M310.0277,83.4628c.499-15.6626.5986-26.7358.499-34.1187,0-4.2896-2.6943-9.0781,8.9785-9.0781,6.9834,0,9.876,2.9927,11.1729,6.4844.5986,1.4966.8984,3.1924.8984,5.188h.6982c.3984-3.8911,5.2871-11.6724,15.8623-11.6724,15.6621,0,16.2607,15.563,16.1611,23.0449-.1992,8.1807-1.4961,16.3608-.6982,26.2373.3984,4.3896-.0996,7.582-9.2783,7.582-8.4795,0-12.1709-3.791-12.1709-9.5771,0-8.3799,1.1973-16.0615,1.1973-23.6436,0-3.9902-1.7959-6.8838-5.9854-6.8838-3.292,0-5.1875,2.6938-6.1855,3.9907-.1992,6.8838-.3994,15.7622-.0996,21.6484.0996,1.9951.1992,3.8906.3984,5.1875.3994,4.4893.2002,8.2803-6.6836,8.2803h-7.7812c-5.0879,0-6.3848-3.0928-6.8838-6.3848-.1992-1.7959-.0996-4.0903-.0996-6.2852Z"/>
        <path class="cls-2" d="M397.0219,40.266c15.4629,0,23.6436,9.0781,23.6436,20.7505,0,8.8789-3.3926,11.1733-7.9814,11.1733h-24.2422l-.1992.2993c.1992,5.0879,3.4912,9.4775,11.7715,9.4775,5.9863,0,11.7725-2.3945,13.8672-3.4917,0,0,2.8936,2.4941,3.4922,6.7837.498,4.2896-1.2969,6.9834-4.6895,8.7788-2.5938,1.397-8.0801,3.0928-15.5625,3.0928-19.5537,0-27.5342-12.6699-27.5342-28.7314,0-15.9619,9.2773-28.1328,27.4346-28.1328ZM402.7084,63.7098s.2988-.8975.2988-2.5938c0-3.9902-2.2939-6.584-6.584-6.584-7.083,0-8.3799,5.9854-8.0811,9.1777h14.3662Z"/>
        <path class="cls-2" d="M451.2934,40.266c14.166,0,21.3496,6.8838,20.4512,15.8623-.5986,7.3823-8.6787,9.1777-14.665,6.3848,0,0,.2002-.8979.0996-1.8955-.0996-1.9951-1.5957-4.0903-4.8877-4.0903-5.7861,0-8.1807,5.0879-8.0811,11.9712.2998,7.2827,3.791,11.9717,11.6719,11.9717,6.6846,0,11.1738-3.1924,11.1738-3.1924,0,0,5.0879,3.0928,5.3867,8.8789.2998,6.3848-6.4844,10.9736-19.2539,10.9736-19.8525,0-28.4316-12.0713-29.0303-28.6318-.499-15.9619,9.9756-28.2324,27.1348-28.2324Z"/>
        <path class="cls-2" d="M481.9223,56.0282h-3.5918c-2.0947,0-3.1924-.7979-3.0928-2.6934.2002-2.3945-.2988-5.4868-.1992-7.6816.0996-1.1973.499-2.3945,3.292-3.292,7.6816-1.7959,8.5791-5.9858,9.1777-8.6797.5986-2.0947,1.4971-3.292,3.9912-3.292,3.5908,0,11.373-1.4966,11.0732,3.9907-.0996,1.9951-.0996,5.0879-.0996,6.8833,2.6934.0996,6.1855.0996,8.9785,0,2.793,0,3.4912,1.0977,3.4912,2.6938,0,2.1943-.0996,5.8857-.0996,9.3774,0,1.6958-.499,2.5938-2.5938,2.5938h-9.7764c-.1992,8.0806-.499,18.2563-.2998,22.4463.2002,3.1924,1.2969,3.9907,3.5918,4.0903,1.5967.0996,3.292-.2993,4.8887-.2993,1.6953-.0996,3.292,1.0977,3.3916,2.8931l.3994,4.5894c.1992,2.0947-.3994,3.5913-2.0957,4.6885-3.292,2.0952-10.375,2.7935-14.9639,2.7935-11.8721,0-15.7627-6.6841-15.8623-16.4604-.0996-5.188.499-20.4517.3994-24.6416Z"/>
        <path class="cls-2" d="M520.1312,64.9071l.2002-6.4844c0-3.6914.9971-4.5894,6.2842-4.5894,0,0,12.5703.1997,21.25-.3989,4.2891-.1992,5.2871,2.2944,5.2871,6.1855l-.1992,5.9854c-.0996,3.791-.998,4.5894-6.2852,4.5894-5.7861,0-20.9502.1992-20.9502.1992-4.29,0-5.5869-1.5962-5.5869-5.4868Z"/>
        <path class="cls-1" d="M561.0336,39.368c-.1006-4.8882-2.3945-11.0737,6.4844-11.0737h7.6816c6.9834,0,7.2822,5.2876,7.083,9.6772-.1992,4.8882-.6982,19.4536-.499,27.0356.3994,10.375,2.1943,15.1636,8.6797,15.1636,6.9834,0,8.9785-4.4893,8.9785-15.2637,0-9.2778-.0996-21.6484-.2002-25.5391-.0996-4.8882-2.4941-11.0737,6.3848-11.0737h7.7822c6.9834,0,7.1826,5.2876,7.083,9.6772-.2002,4.8882-.499,22.3467-.6982,27.0356-.8984,19.5532-6.4854,32.123-28.832,32.123-23.6436,0-29.1299-12.2705-29.5293-32.0234-.2988-13.2686-.2988-22.4463-.3984-25.7388Z"/>
      </g>
      <g id="_0415Gq.tif" data-name="0415Gq.tif">
        <g>
          <path class="cls-1" d="M40.5592,54.8354c.4017-1.5663,2.6398-4.4968,6.8383-4.3824,3.0393.1398,6.517,3.3389,10.9424,5.4067,22.262,10.4023,52.5522-25.3448,32.5051-39.1992-2.1159-1.4623-11.3256-5.2038-12.8733-5.6321-3.1259-.865-3.2183-5.6321-2.816-6.839.5089-1.5266,1.6092-3.6206,3.6206-4.0229s6.0344,0,7.6435.4023c6.9382,1.7345,15.2614,7.9475,19.31,13.2756,15.8257,20.8274-14.2136,59.7651-40.2592,57.5898-8.3436-.6968-19.9319-8.0591-22.1515-9.8383-2.3582-1.8903-3.1838-5.1074-2.7598-6.7607Z"/>
          <path class="cls-1" d="M24.4669,48.8439c1.2069,1.2069,4.0229,4.4252,2.816,8.4481-4.0229,3.6206-5.2964,4.7163-8.4481,8.4481-15.8548,18.7731,4.3218,41.078,22.9306,25.3443,1.9641-1.6606,12.7273-9.9164,13.6779-10.4596,2.816-1.6092,5.0322-2.0115,6.4367-2.0115,1.6092,0,4.8275.8046,6.0287,2.1095.4079.3043,1.2125,1.9134.8102,2.3157-5.057,5.057-21.9599,20.0116-28.1604,22.5283C16.3212,115.4046-6.9628,93.13,1.9386,68.5561c2.8515-7.8721,13.2701-16.8022,15.2815-18.8137s6.0399-2.1055,7.2468-.8986Z"/>
        </g>
      </g>
    </g>
  </g>
</svg>