<?xml version="1.0" encoding="UTF-8"?>
<svg id="Layer_2" data-name="Layer 2" xmlns="http://www.w3.org/2000/svg" viewBox="0 0 192.8902 189.075">
  <defs>
    <style>
      .cls-1 {
        fill: #ee8418;
      }
    </style>
  </defs>
  <g id="Layer_1-2" data-name="Layer 1">
    <g id="_0415Gq.tif" data-name="0415Gq.tif">
      <g>
        <path class="cls-1" d="M71.0411,96.0465c.7035-2.7435,4.6238-7.8764,11.9776-7.6759,5.3235.2449,11.4148,5.8482,19.166,9.4701,38.9928,18.22,92.0474-44.3924,56.934-68.659-3.7061-2.5613-19.8372-9.1146-22.5481-9.8648-5.4751-1.5151-5.637-9.8648-4.9324-11.9787.8913-2.6739,2.8185-6.3417,6.3417-7.0463,3.5231-.7046,10.5694,0,13.388.7046,12.1525,3.0381,26.731,13.9203,33.8222,23.2528,27.7193,36.48-24.8957,104.681-70.5157,100.8709-14.6141-1.2205-34.9116-14.1158-38.7992-17.2321-4.1304-3.311-5.5765-8.9458-4.834-11.8416Z"/>
        <path class="cls-1" d="M42.8548,85.5521c2.1139,2.1139,7.0463,7.7509,4.9324,14.7972-7.0463,6.3417-9.2768,8.2608-14.7972,14.7972-27.7704,32.8818,7.5698,71.9498,40.1639,44.3917,3.4402-2.9087,22.2923-17.3689,23.9574-18.3204,4.9324-2.8185,8.8141-3.5231,11.2741-3.5231,2.8185,0,8.4556,1.4093,10.5595,3.6949.7145.5329,2.1238,3.3514,1.4192,4.0561-8.8576,8.8576-38.4636,35.0511-49.3241,39.4593C28.5872,202.1359-12.1956,163.121,3.3955,120.0789c4.9945-13.7883,23.2431-29.4298,26.7662-32.9529,3.5231-3.5231,10.5792-3.6878,12.693-1.5739Z"/>
      </g>
    </g>
  </g>
</svg>