<?xml version="1.0" encoding="UTF-8"?>
<svg id="Layer_2" data-name="Layer 2" xmlns="http://www.w3.org/2000/svg" viewBox="0 0 443 443">
  <defs>
    <style>
      .cls-1 {
        fill: #ee8418;
      }

      .cls-2 {
        fill: #fafafa;
      }
    </style>
  </defs>
  <g id="Layer_1-2" data-name="Layer 1">
    <rect class="cls-1" width="443" height="443"/>
  </g>
  <g id="Layer_3" data-name="Layer 3">
    <g id="_0415Gq.tif" data-name="0415Gq.tif">
      <g>
        <path class="cls-2" d="M188.0747,223.4854c.9257-3.6097,6.0837-10.3633,15.7595-10.0995,7.0044.3222,15.019,7.6948,25.2177,12.4603,51.3047,23.9729,121.1111-58.4092,74.9107-90.3379-4.8763-3.37-26.1007-11.9925-29.6677-12.9796-7.2039-1.9935-7.4169-12.9796-6.4898-15.7609,1.1727-3.5182,3.7085-8.344,8.344-9.2711,4.6356-.9271,13.9067,0,17.6152.9271,15.9896,3.9974,35.1712,18.3156,44.5015,30.5948,36.4716,47.9985-32.7564,137.7338-92.7809,132.7207-19.2285-1.6059-45.9349-18.5728-51.05-22.6732-5.4346-4.3564-7.3373-11.7704-6.3603-15.5806Z"/>
        <path class="cls-2" d="M150.9887,209.6774c2.7813,2.7813,9.2711,10.1983,6.4898,19.4694-9.2711,8.344-12.206,10.8691-19.4694,19.4694-36.5388,43.2642,9.96,94.6677,52.8455,58.4082,4.5264-3.8271,29.3311-22.8531,31.5219-24.105,6.4898-3.7085,11.5971-4.6356,14.8338-4.6356,3.7085,0,11.1254,1.8542,13.8937,4.8615.9401.7012,2.7944,4.4097,1.8673,5.3368-11.6543,11.6543-50.6084,46.1184-64.898,51.9184-55.8571,22.6718-109.5169-28.662-89.003-85.2945,6.5715-18.1419,30.582-38.7222,35.2176-43.3577,4.6356-4.6356,13.9195-4.8522,16.7008-2.0709Z"/>
      </g>
    </g>
  </g>
</svg>